<svg width="26" height="17" viewBox="0 0 26 17" fill="none" xmlns="http://www.w3.org/2000/svg">
<path d="M25.7673 8.93571L18.3685 16.3345C18.2517 16.4434 18.0971 16.5027 17.9373 16.4999C17.7776 16.4971 17.6252 16.4324 17.5122 16.3194C17.3993 16.2064 17.3346 16.054 17.3317 15.8943C17.3289 15.7346 17.3882 15.58 17.4971 15.4631L23.8426 9.11657L0.668936 8.95304C0.505412 8.95304 0.348585 8.88808 0.232957 8.77246C0.117328 8.65683 0.0523682 8.5 0.0523682 8.33648C0.0523682 8.17295 0.117328 8.01613 0.232957 7.9005C0.348585 7.78487 0.505412 7.71991 0.668936 7.71991L23.8426 7.88343L17.4971 1.5369C17.3882 1.42002 17.3289 1.26542 17.3317 1.10569C17.3346 0.945958 17.3993 0.793554 17.5122 0.680588C17.6252 0.567623 17.7776 0.502914 17.9373 0.500096C18.0971 0.497278 18.2517 0.556569 18.3685 0.66548L25.7673 8.06429C25.8828 8.1799 25.9477 8.33661 25.9477 8.5C25.9477 8.66339 25.8828 8.8201 25.7673 8.93571Z" fill="#02041B" style="fill:#02041B;fill:color(display-p3 0.0078 0.0157 0.1059);fill-opacity:1;"/>
</svg>
